<svg width="100" height="66" viewBox="0 0 100 66" fill="none" xmlns="http://www.w3.org/2000/svg">
<g clip-path="url(#clip0_292_159)">
<path d="M72.8442 23.5186C68.941 18.045 57.7791 19.3103 46.6117 26.0944C46.5552 25.9023 46.4761 25.7159 46.3857 25.5352C60.1516 16.8362 73.7084 14.396 77.7303 20.0334C80.2157 23.5186 78.5268 29.4102 73.8666 35.7988C73.7819 34.6974 73.539 33.7879 73.1436 33.0762C74.5614 29.3311 74.567 25.9419 72.8385 23.5186" fill="white"/>
<path d="M48.7637 36.1208C48.7637 38.7418 50.6842 40.041 52.8251 41.2499L54.7343 42.3344C55.7737 42.9219 56.2369 43.5828 56.2369 44.4753C56.2369 45.6615 55.3613 46.4015 53.9492 46.4015C51.3451 46.4015 50.5656 44.238 50.142 42.1254L50.0742 41.7978H48.7976V47.7515H49.7861L49.9104 47.6159C50.061 47.4427 50.2116 47.3561 50.3622 47.3561C50.7464 47.3448 51.2378 47.4578 51.8083 47.5933C52.5257 47.7571 53.3335 47.9492 54.1808 47.9492C56.3329 47.9492 59.3663 46.5031 59.3663 43.2947C59.3663 41.0578 58.0275 40.0523 56.4063 39.0582L52.8477 36.9512C52.0343 36.4654 51.6332 35.8158 51.6332 34.9685C51.6332 34.2737 52.1868 33.24 53.7232 33.24C54.8643 33.24 56.2651 33.6637 56.9712 36.9625L57.039 37.2901H58.2874L58.1292 31.9634H57.1294L57.0108 32.1668C56.9543 32.2628 56.8695 32.3249 56.7735 32.3249C56.7227 32.3249 56.4402 32.2345 56.2764 32.1781C55.6381 31.9747 54.6835 31.6697 53.7176 31.6697C50.848 31.6697 48.7637 33.545 48.7637 36.1265" fill="white"/>
<path d="M25.6493 39.1146C25.6493 34.9007 27.6263 33.4038 29.3209 33.4038C31.185 33.4038 32.2978 34.9685 32.2978 36.4823V43.7917C32.0718 44.735 31.0155 45.4185 29.7785 45.4185C27.8748 45.4185 25.6493 43.7635 25.6493 39.1146ZM35.2803 24.3094L35.173 24.3489C34.5798 24.5579 32.2526 25.3205 30.3772 25.7837L30.0665 25.8628V27.1676L30.5184 27.1224C31.5747 27.0151 31.9701 27.1507 32.1227 27.2863C32.2978 27.4444 32.3034 27.7607 32.3034 28.2578V32.6469C31.3375 31.9634 30.4055 31.664 29.2249 31.664C27.3552 31.664 25.4911 32.6017 24.1241 34.2398C22.7797 35.8497 22.0059 38.0131 22.0059 40.1653C22.0059 47.7289 27.7506 47.9492 28.4058 47.9492C30.0044 47.9492 31.3149 47.4521 32.3034 46.4805V47.6498L32.7779 48L38.0933 46.119V44.8593L37.6527 44.8932C36.619 44.9723 36.2236 44.8254 36.0711 44.6842C35.9186 44.543 35.8903 44.2945 35.8903 43.8539V24.524L35.3198 24.2981L35.2803 24.315V24.3094Z" fill="white"/>
<path d="M74.9959 46.311C73.5442 46.0568 73.3578 46.0229 73.3578 43.916V37.3014C73.3578 33.5563 71.8552 31.6583 68.901 31.6583C67.229 31.6583 65.7038 32.37 64.4724 33.7031V24.6031L63.9301 24.2811L63.8793 24.3037L63.7381 24.3602C63.0433 24.6426 60.3489 25.4504 59.1118 25.795L58.8124 25.8797V27.1789L59.27 27.1281C59.5411 27.0998 59.7558 27.0998 60.0495 27.0998C60.3432 27.0998 60.5748 27.162 60.6934 27.2919C60.9024 27.5009 60.8911 27.9189 60.8855 28.2522V28.399V43.8651C60.8855 45.9664 60.7556 46.1528 59.1513 46.3223L58.7842 46.3618V47.6328H66.4156V46.328H66.3478C64.8735 46.1641 64.4781 46.119 64.4781 43.899V36.1038C64.6645 35.8779 66.0201 34.2793 67.6865 34.2793C69.1326 34.2793 69.7765 35.2565 69.7765 37.4539V43.9329C69.7765 45.9721 69.4263 46.2093 67.9181 46.3223H67.8899V47.6385H75.3405V46.3901L75.0016 46.328" fill="white"/>
<path d="M43.3799 47.3165C45.8992 47.3165 47.1702 45.8592 48.0627 44.1363C48.1248 44.0233 48.074 43.9443 47.961 43.9951C47.2945 44.3058 45.5434 45.1192 43.3799 45.1192C41.2165 45.1192 39.4654 44.3058 38.7988 43.9951C38.6859 43.9443 38.6407 44.0233 38.6972 44.1363C39.5897 45.8592 40.8663 47.3165 43.3799 47.3165Z" fill="white"/>
<path d="M39.703 39.9676C40.3978 41.312 41.392 42.4869 43.3803 42.4869C45.3686 42.4869 46.3628 41.312 47.0576 39.9676C47.1028 39.8772 47.0689 39.8094 46.9672 39.8546C46.521 40.0579 45.1427 40.6737 43.3803 40.6737C41.6179 40.6737 40.234 40.0579 39.7877 39.8546C39.6917 39.8094 39.6522 39.8772 39.6974 39.9676" fill="white"/>
<path d="M40.6242 36.1378C41.1327 37.1377 41.8784 38.0529 43.3811 38.0529C44.8839 38.0529 45.6296 37.1377 46.1381 36.1378C46.172 36.07 46.1381 36.0135 46.0646 36.0474C45.8273 36.1547 44.7822 36.5897 43.3811 36.5897C41.9801 36.5897 40.9406 36.1547 40.6976 36.0474C40.6186 36.0135 40.5847 36.07 40.6186 36.1378" fill="white"/>
<path d="M43.3807 33.8898C44.4259 33.8898 44.9343 33.2175 45.2733 32.5452C45.2959 32.4944 45.2733 32.4492 45.2112 32.4718C45.166 32.4887 44.4372 32.7543 43.3864 32.7543C42.3356 32.7543 41.6068 32.4887 41.5616 32.4718C41.4938 32.4492 41.4712 32.4944 41.4938 32.5452C41.8328 33.2175 42.3412 33.8898 43.3864 33.8898" fill="white"/>
<path d="M40.3467 27.1341C40.3467 25.5522 41.6291 24.2642 43.2166 24.2642C44.8041 24.2642 46.0809 25.5466 46.0809 27.1341C46.0809 28.7216 44.7984 29.9983 43.2166 29.9983C41.6348 29.9983 40.3467 28.7159 40.3467 27.1341Z" fill="white"/>
<path d="M78.0295 47.6896C77.538 47.6896 77.1426 47.2885 77.1426 46.8026C77.1426 46.3168 77.5437 45.9156 78.0295 45.9156C78.5154 45.9156 78.9165 46.3168 78.9165 46.8026C78.9165 47.2885 78.5154 47.6896 78.0295 47.6896ZM78.0295 45.9891C77.5776 45.9891 77.216 46.3563 77.216 46.8026C77.216 47.2489 77.5832 47.6161 78.0295 47.6161C78.4758 47.6161 78.8431 47.2489 78.8431 46.8026C78.8431 46.3563 78.4758 45.9891 78.0295 45.9891Z" fill="white"/>
<path d="M77.7412 46.3111H78.0915C78.3005 46.3111 78.4022 46.4015 78.4022 46.5766C78.4022 46.6557 78.3796 46.7178 78.3401 46.763C78.2949 46.8082 78.244 46.8308 78.1762 46.8421L78.4417 47.2489H78.2836L78.0237 46.8421H77.8824V47.2489H77.7469V46.3054L77.7412 46.3111ZM77.8768 46.7235H78.0406C78.1197 46.7235 78.1762 46.7122 78.2101 46.6952C78.244 46.6783 78.261 46.6387 78.261 46.5766C78.261 46.5257 78.244 46.4918 78.2045 46.4693C78.1649 46.4467 78.1141 46.4354 78.0519 46.4354H77.8768V46.7178V46.7235Z" fill="white"/>
</g>
<defs>
<clipPath id="clip0_292_159">
<rect width="56.9162" height="31" fill="white" transform="translate(22 17)"/>
</clipPath>
</defs>
</svg>
