<svg width="100" height="66" viewBox="0 0 100 66" fill="none" xmlns="http://www.w3.org/2000/svg">
<path d="M8.78582 26L7 36.959H9.5614L10.2449 32.8192H14.1456L14.506 30.6404H10.6022L10.9599 28.3442H15.4124L15.7997 26H8.78582Z" fill="white"/>
<path d="M18.1833 29.9879C18.6599 29.2741 19.3767 28.7264 20.0461 28.7264C20.3578 28.7264 20.6125 28.8009 20.8358 28.9071L20.2694 31.2206C20.0169 31.1288 19.8078 31.0985 19.4924 31.0985C19.0181 31.0985 18.4375 31.4953 18.1696 31.8138L17.322 36.9571H14.8477L16.1732 28.9067H18.0949L18.1833 29.9875V29.9879Z" fill="white"/>
<path d="M27.1361 36.1365C26.1104 36.7759 24.9785 37.1559 23.744 37.1559C21.6287 37.1559 20.4658 35.9088 20.4658 33.8231C20.4658 30.8098 22.3852 28.7255 25.158 28.7255C27.1361 28.7255 28.0757 29.9124 28.0757 31.3127C28.0757 33.1232 26.9744 33.8073 23.0865 34.035C23.0865 34.6296 23.5353 35.1158 24.3979 35.1158C25.112 35.1158 25.754 34.9482 26.7684 34.5235L27.1361 36.1361V36.1365ZM25.7545 31.3588C25.7545 30.9462 25.4414 30.6408 24.8582 30.6408C23.9208 30.6408 23.2801 31.4189 23.1161 32.3768C24.4722 32.2706 25.7545 32.2706 25.7545 31.3588Z" fill="white"/>
<path d="M35.1297 36.1365C34.1039 36.7759 32.972 37.1559 31.7348 37.1559C29.6209 37.1559 28.458 35.9088 28.458 33.8231C28.458 30.8098 30.3796 28.7255 33.1502 28.7255C35.1297 28.7255 36.0679 29.9124 36.0679 31.3127C36.0679 33.1232 34.9679 33.8073 31.08 34.035C31.08 34.6296 31.5275 35.1158 32.3901 35.1158C33.1028 35.1158 33.7453 34.9482 34.7592 34.5235L35.1297 36.1361V36.1365ZM33.7448 31.3588C33.7448 30.9462 33.4318 30.6408 32.8526 30.6408C31.913 30.6408 31.2732 31.4189 31.1105 32.3768C32.4657 32.2706 33.7448 32.2706 33.7448 31.3588Z" fill="white"/>
<path d="M41.6117 35.9835C41.104 36.5781 40.2706 37.156 39.1091 37.156C37.3515 37.156 36.5039 35.9835 36.5039 34.0211C36.5039 30.5193 38.5139 28.7247 40.5973 28.7247C41.4499 28.7247 42.0883 29.0888 42.5048 29.6062L43.0881 26.001H45.5433L43.7561 36.9586H41.5962L41.6117 35.9839V35.9835ZM42.1767 31.4795C41.9844 31.2057 41.5511 30.856 40.9395 30.856C39.8254 30.856 39.1692 31.8293 39.1692 33.548C39.1692 34.4165 39.4668 35.04 40.2856 35.04C40.8803 35.04 41.4011 34.6745 41.7151 34.355L42.1767 31.4795Z" fill="white"/>
<path d="M49.8572 28.7238C51.9274 28.7238 53.2981 29.9578 53.2981 32.1483C53.2981 32.4076 53.2826 32.6801 53.2393 32.9725C52.8087 36.0906 50.81 37.1556 48.5767 37.1556C46.3434 37.1556 45.1514 35.9397 45.1514 33.7925C45.1514 33.5332 45.1682 33.2607 45.1974 32.9883C45.5679 29.9266 47.6818 28.7242 49.8572 28.7242M47.6982 33.6705C47.6982 34.661 48.1903 35.0708 48.934 35.0708C49.752 35.0708 50.4364 34.5232 50.6774 32.972C50.7221 32.7099 50.7376 32.423 50.7376 32.2097C50.7376 31.2048 50.2582 30.8095 49.5569 30.8095C48.6788 30.8095 47.9953 31.4027 47.7725 32.8635C47.7273 33.1411 47.6982 33.4582 47.6982 33.6705Z" fill="white"/>
<path d="M57.0113 28.9077L57.0701 29.8498C57.6365 29.2891 58.4558 28.7242 59.5431 28.7242C60.4531 28.7242 60.989 29.1066 61.2428 29.8065C61.8798 29.2276 62.7311 28.7242 63.8466 28.7242C65.2619 28.7242 65.8876 29.623 65.6041 31.359L64.6809 36.9582H62.2093L63.0414 31.8908C63.1476 31.237 63.0582 30.8845 62.4772 30.8845C62.0029 30.8845 61.5399 31.2225 61.3171 31.4191L60.408 36.9582H57.9327L58.7529 31.9811C58.8555 31.2984 58.8555 30.8845 58.2786 30.8845C57.7696 30.8845 57.2647 31.2225 57.0428 31.4493L56.1328 36.9582H53.6611L54.9854 28.9077H57.0109H57.0113Z" fill="white"/>
<path d="M68.0762 26H72.1865C74.3017 26 75.4788 27.1278 75.4788 29.0278C75.4788 31.6481 73.929 33.4898 70.8317 33.4898H69.415L68.8522 36.9576H66.2881L68.0762 26ZM70.2658 28.2836L69.7736 31.3282H71.0404C72.2607 31.3282 72.8736 30.5826 72.8736 29.4995C72.8736 28.7684 72.4699 28.2836 71.5918 28.2836H70.2662H70.2658Z" fill="white"/>
<path d="M80.1351 28.7238C82.2067 28.7238 83.5774 29.9578 83.5774 32.1483C83.5774 32.4076 83.5633 32.6801 83.5186 32.9725C83.0866 36.0906 81.0893 37.1556 78.8574 37.1556C76.6255 37.1556 75.4307 35.9397 75.4307 33.7925C75.4307 33.5332 75.4448 33.2607 75.4767 32.9883C75.8485 29.9266 77.9624 28.7242 80.1356 28.7242M77.9788 33.6705C77.9788 34.661 78.4696 35.0708 79.2133 35.0708C80.0349 35.0708 80.7198 34.5232 80.9554 32.972C81 32.7099 81.0155 32.423 81.0155 32.2097C81.0155 31.2048 80.5384 30.8095 79.8362 30.8095C78.9604 30.8095 78.2737 31.4027 78.0518 32.8635C78.008 33.1411 77.9788 33.4582 77.9788 33.6705Z" fill="white"/>
<path d="M83.0234 40L84.8389 28.9079H86.8503L86.9719 29.8369C87.7899 29.0746 88.6411 28.7272 89.5898 28.7272C91.0489 28.7272 92.077 29.7293 92.077 31.8751C92.077 34.9485 90.663 37.1413 88.0578 37.1413C86.9838 37.1413 86.3887 36.6225 86.0925 36.2896L85.4951 39.9996H83.0234V40ZM86.4042 34.4009C86.5837 34.6146 87.059 35.0402 87.686 35.0402C88.7259 35.0402 89.4126 34.1731 89.4126 32.2718C89.4126 31.3275 89.0986 30.8241 88.3987 30.8241C87.8191 30.8241 87.1474 31.2972 86.8653 31.5854L86.4037 34.4009H86.4042Z" fill="white"/>
</svg>
