<svg width="25" height="25" viewBox="0 0 25 25" fill="none" xmlns="http://www.w3.org/2000/svg">
<mask id="mask0_229_141" style="mask-type:luminance" maskUnits="userSpaceOnUse" x="0" y="0" width="25" height="25">
<path d="M12.3935 0.826294C9.07898 0.826294 5.96258 2.07891 3.6388 4.33363C1.297 6.60624 0 9.61252 0 12.7978C0 15.983 1.27898 19.0072 3.6388 21.2619C5.9806 23.5166 9.09699 24.7692 12.4115 24.7692C15.7261 24.7692 18.8245 23.5166 21.1663 21.2619C23.5081 19.0072 24.7871 15.983 24.7871 12.7978C24.7871 9.61252 23.4901 6.58834 21.1663 4.33363C18.8245 2.07891 15.7081 0.826294 12.3935 0.826294Z" fill="white"/>
</mask>
<g mask="url(#mask0_229_141)">
<path d="M24.7871 0.826294H0V24.7871H24.7871V0.826294Z" fill="url(#paint0_linear_229_141)"/>
</g>
<mask id="mask1_229_141" style="mask-type:luminance" maskUnits="userSpaceOnUse" x="0" y="0" width="25" height="24">
<path d="M24.7871 0H0V23.9608H24.7871V0Z" fill="white"/>
</mask>
<g mask="url(#mask1_229_141)">
<path fill-rule="evenodd" clip-rule="evenodd" d="M4.52148 19.6304C4.61155 19.3083 4.68361 19.0041 4.77368 18.7178C5.02587 17.8052 5.29608 16.8746 5.54827 15.962C5.5843 15.8189 5.56629 15.6399 5.49423 15.5147C3.08038 11.0589 5.56629 5.67264 10.6462 4.52739C15.2397 3.48951 19.3829 6.49579 20.1395 10.5042C20.9321 14.6915 18.0859 18.6641 13.7986 19.3978C12.0873 19.6841 10.448 19.4336 8.89885 18.6999C8.75474 18.6283 8.55659 18.6104 8.41248 18.6462C6.32287 19.1472 4.95382 19.523 4.52148 19.6125M6.34088 17.8767C7.11548 17.6799 7.83603 17.5009 8.55659 17.3041C8.75474 17.2504 8.91686 17.2862 9.097 17.3757C10.448 18.1273 11.8891 18.4136 13.4383 18.163C17.0051 17.6083 19.4369 14.3873 18.8965 10.9515C18.3381 7.39052 14.8794 5.01055 11.2406 5.65475C6.82726 6.44211 4.48546 11.1842 6.68315 14.9599C6.91733 15.3715 6.98938 15.7294 6.82726 16.1589C6.6291 16.6957 6.52102 17.2504 6.34088 17.8588" fill="white"/>
<path fill-rule="evenodd" clip-rule="evenodd" d="M14.4652 15.5503C12.934 15.4967 10.4841 14.3335 8.80882 11.5241C8.21436 10.522 8.30443 9.39462 9.16909 8.60726C9.45731 8.33884 9.8356 8.41042 10.1779 8.4641C10.2679 8.4641 10.358 8.60726 10.394 8.69673C10.6102 9.17988 10.8264 9.68093 11.0245 10.182C11.1326 10.4504 10.9344 10.7009 10.5381 11.1304C10.412 11.2735 10.376 11.3988 10.4841 11.5599C11.1326 12.6156 12.0333 13.3672 13.2042 13.8146C13.3843 13.8862 13.5104 13.8325 13.6185 13.7072C14.249 12.9735 14.303 12.7588 14.6453 12.902C16.2305 13.6356 16.3566 13.6714 16.3566 13.8325C16.4107 15.1209 15.1857 15.5861 14.4471 15.5325" fill="white"/>
</g>
<defs>
<linearGradient id="paint0_linear_229_141" x1="12.1916" y1="24.7871" x2="12.1916" y2="0.826294" gradientUnits="userSpaceOnUse">
<stop stop-color="#4CB748"/>
<stop offset="0.12" stop-color="#4CB748"/>
<stop offset="0.38" stop-color="#53B84B"/>
<stop offset="0.76" stop-color="#68BD54"/>
<stop offset="0.84" stop-color="#6DBF57"/>
<stop offset="1" stop-color="#6DBF57"/>
</linearGradient>
</defs>
</svg>
