<svg width="100" height="66" viewBox="0 0 100 66" fill="none" xmlns="http://www.w3.org/2000/svg">
<path d="M21.3127 43.9744V41.1431H21.8588L21.9409 41.5526C22.191 41.28 22.493 41.1431 22.8445 41.1431C23.1961 41.1431 23.4365 41.2727 23.567 41.5318C23.8533 41.2727 24.1517 41.1431 24.4645 41.1431C25.1072 41.1431 25.4286 41.5013 25.4286 42.2189V43.9744H24.7219V42.192C24.7219 41.8778 24.5817 41.7201 24.3003 41.7201C24.0913 41.7201 23.8895 41.8154 23.695 42.0061V43.9744H22.9895V42.2005C22.9895 41.8802 22.8603 41.7201 22.6005 41.7201C22.3939 41.7201 22.1994 41.8154 22.017 42.0061V43.9744H21.3115H21.3127Z" fill="white"/>
<path d="M25.7432 42.5587C25.7432 41.6101 26.2046 41.1357 27.1288 41.1357C28.053 41.1357 28.5144 41.6101 28.5144 42.5587C28.5144 43.5074 28.053 43.9793 27.1288 43.9793C26.2046 43.9793 25.7468 43.5062 25.7432 42.5587ZM27.1288 43.4352C27.5818 43.4352 27.8077 43.1394 27.8077 42.5477C27.8077 41.956 27.5818 41.6822 27.1288 41.6822C26.6758 41.6822 26.4499 41.9707 26.4499 42.5477C26.4499 43.1247 26.6758 43.4352 27.1288 43.4352Z" fill="white"/>
<path d="M28.4971 41.1431H29.2436L29.9226 43.1223L30.6293 41.1431H31.3759L30.2379 43.9744H29.5662L28.4983 41.1431H28.4971Z" fill="white"/>
<path d="M32.1948 40.1187V40.6847H31.4893V40.1187H32.1948ZM32.1948 41.1431V43.9744H31.4893V41.1431H32.1948Z" fill="white"/>
<path d="M33.8219 41.1431C34.6712 41.1431 35.0952 41.5819 35.0952 42.4585C35.0952 42.5758 35.0868 42.692 35.0711 42.8093H33.2143C33.2143 43.2079 33.5042 43.4083 34.0829 43.4083C34.3656 43.4083 34.6483 43.3814 34.9297 43.3277V43.8937C34.6833 43.9475 34.3825 43.9744 34.0297 43.9744C33.015 43.9744 32.5088 43.4915 32.5088 42.5269C32.5088 41.5624 32.9461 41.1431 33.8219 41.1431ZM33.2143 42.313H34.4079V42.291C34.4079 41.8998 34.2121 41.703 33.8219 41.703C33.4317 41.703 33.2469 41.9059 33.2143 42.3118V42.313Z" fill="white"/>
<path d="M35.4095 43.8399V43.247C35.72 43.3729 36.0787 43.4353 36.4859 43.4353C36.7891 43.4353 36.9413 43.3363 36.9413 43.1382C36.9413 42.9402 36.8386 42.8558 36.6345 42.8558H36.1283C35.5593 42.8558 35.2754 42.5722 35.2754 42.0062C35.2754 41.4402 35.6898 41.1162 36.5197 41.1162C36.8712 41.1162 37.2022 41.17 37.5139 41.2776V41.8705C37.2034 41.7446 36.8652 41.6822 36.5016 41.6822C36.1198 41.6822 35.9289 41.7812 35.9289 41.9793C35.9289 42.1773 36.0401 42.2629 36.2624 42.2629H36.7154C37.3375 42.2629 37.648 42.5453 37.648 43.1125C37.648 43.6798 37.2518 44.0025 36.4593 44.0025C36.0703 44.0025 35.72 43.9487 35.4095 43.8411V43.8399Z" fill="white"/>
<path d="M40.0947 41.1431H40.8413L41.5202 43.1223L42.2269 41.1431H42.9735L41.8355 43.9744H41.1639L40.0959 41.1431H40.0947Z" fill="white"/>
<path d="M43.7924 40.1187V40.6847H43.0869V40.1187H43.7924ZM43.7924 41.1431V43.9744H43.0869V41.1431H43.7924Z" fill="white"/>
<path d="M46.7183 43.8045C46.2906 43.9182 45.8714 43.9744 45.4631 43.9744C44.5583 43.9744 44.1064 43.4842 44.1064 42.5025C44.1064 41.5966 44.5486 41.1431 45.4329 41.1431C45.6213 41.1431 45.8134 41.1883 46.0115 41.2776V40.1187H46.7183V43.8045ZM46.0115 41.8815C45.8654 41.7849 45.683 41.736 45.4631 41.736C45.0246 41.736 44.8047 41.9854 44.8047 42.4829C44.8047 43.0746 45.033 43.3705 45.4897 43.3705C45.6745 43.3705 45.8485 43.3448 46.0115 43.2922V41.8815Z" fill="white"/>
<path d="M48.3454 41.1431C49.1946 41.1431 49.6187 41.5819 49.6187 42.4585C49.6187 42.5758 49.6102 42.692 49.5945 42.8093H47.7377C47.7377 43.2079 48.0277 43.4083 48.6063 43.4083C48.889 43.4083 49.1717 43.3814 49.4532 43.3277V43.8937C49.2067 43.9475 48.9059 43.9744 48.5532 43.9744C47.5384 43.9744 47.0322 43.4915 47.0322 42.5269C47.0322 41.5624 47.4695 41.1431 48.3454 41.1431ZM47.7389 42.313H48.9325V42.291C48.9325 41.8998 48.7368 41.703 48.3466 41.703C47.9564 41.703 47.7716 41.9059 47.7389 42.3118V42.313Z" fill="white"/>
<path d="M49.7998 42.5587C49.7998 41.6101 50.2613 41.1357 51.1854 41.1357C52.1096 41.1357 52.5711 41.6101 52.5711 42.5587C52.5711 43.5074 52.1096 43.9793 51.1854 43.9793C50.2613 43.9793 49.8034 43.5062 49.7998 42.5587ZM51.1842 43.4352C51.6373 43.4352 51.8632 43.1394 51.8632 42.5477C51.8632 41.956 51.6373 41.6822 51.1842 41.6822C50.7312 41.6822 50.5053 41.9707 50.5053 42.5477C50.5053 43.1247 50.7312 43.4352 51.1842 43.4352Z" fill="white"/>
<path d="M55.2825 43.8399V43.247C55.593 43.3729 55.9518 43.4353 56.3589 43.4353C56.6621 43.4353 56.8143 43.3363 56.8143 43.1382C56.8143 42.9402 56.7129 42.8558 56.5075 42.8558H56.0013C55.4323 42.8558 55.1484 42.5722 55.1484 42.0062C55.1484 41.4402 55.5628 41.1162 56.3927 41.1162C56.7443 41.1162 57.0753 41.17 57.387 41.2776V41.8705C57.0765 41.7446 56.7382 41.6822 56.3746 41.6822C56.011 41.6822 55.802 41.7812 55.802 41.9793C55.802 42.1773 55.9131 42.2629 56.1354 42.2629H56.5884C57.2106 42.2629 57.5211 42.5453 57.5211 43.1125C57.5211 43.6798 57.1248 44.0025 56.3323 44.0025C55.9433 44.0025 55.593 43.9487 55.2825 43.8411V43.8399Z" fill="white"/>
<path d="M57.7559 40.6847H58.2777L58.384 41.1431H59.0871V41.7091H58.4614V43.0111C58.4614 43.2752 58.5737 43.4072 58.7996 43.4072H59.0871V43.9732H58.4589C57.9902 43.9732 57.7559 43.7189 57.7559 43.2104V40.6835V40.6847Z" fill="white"/>
<path d="M59.3486 43.9744V41.1431H59.8947L59.9829 41.5049C60.2281 41.2641 60.4878 41.1431 60.7609 41.1431V41.7201C60.4975 41.7201 60.2631 41.8301 60.0541 42.0514V43.9744H59.3486Z" fill="white"/>
<path d="M62.123 41.1431C62.9722 41.1431 63.3962 41.5819 63.3962 42.4585C63.3962 42.5758 63.3878 42.692 63.3721 42.8093H61.5153C61.5153 43.2079 61.8052 43.4083 62.3839 43.4083C62.6666 43.4083 62.9493 43.3814 63.2307 43.3277V43.8937C62.9843 43.9475 62.6835 43.9744 62.3295 43.9744C61.3148 43.9744 60.8086 43.4915 60.8086 42.5269C60.8086 41.5624 61.2459 41.1431 62.1218 41.1431H62.123ZM61.5165 42.313H62.7101V42.291C62.7101 41.8998 62.5144 41.703 62.1242 41.703C61.734 41.703 61.5491 41.9059 61.5165 42.3118V42.313Z" fill="white"/>
<path d="M63.5762 43.0929C63.5762 42.5306 63.9809 42.2494 64.7915 42.2494C64.9811 42.2494 65.172 42.2678 65.3617 42.3032V42.0905C65.3617 41.8374 65.1817 41.7103 64.8205 41.7103C64.5148 41.7103 64.1754 41.7555 63.8033 41.8448V41.2788C64.1766 41.1883 64.516 41.1443 64.8205 41.1443C65.6516 41.1443 66.0672 41.4548 66.0672 42.077V43.9756H65.6564L65.4064 43.7225C65.1636 43.8912 64.8942 43.9756 64.6018 43.9756C63.9181 43.9756 63.5762 43.6822 63.5762 43.0942V43.0929ZM64.7903 42.7335C64.4508 42.7335 64.2817 42.8509 64.2817 43.0844C64.2817 43.3362 64.4242 43.4621 64.7081 43.4621C64.9425 43.4621 65.1599 43.3888 65.3605 43.2409V42.7873C65.1829 42.7519 64.9932 42.7335 64.7903 42.7335Z" fill="white"/>
<path d="M66.5139 43.9744V41.1431H67.0599L67.1421 41.5526C67.3922 41.28 67.6942 41.1431 68.0457 41.1431C68.3973 41.1431 68.6377 41.2727 68.7681 41.5318C69.0544 41.2727 69.3528 41.1431 69.6657 41.1431C70.3084 41.1431 70.6298 41.5013 70.6298 42.2189V43.9744H69.9242V42.192C69.9242 41.8778 69.7841 41.7201 69.5026 41.7201C69.2924 41.7201 69.0919 41.8154 68.8974 42.0061V43.9744H68.1907V42.2005C68.1907 41.8802 68.0614 41.7201 67.8017 41.7201C67.5951 41.7201 67.4006 41.8154 67.2182 42.0061V43.9744H66.5127H66.5139Z" fill="white"/>
<path d="M71.7846 40.1187V40.6847H71.0791V40.1187H71.7846ZM71.7846 41.1431V43.9744H71.0791V41.1431H71.7846Z" fill="white"/>
<path d="M72.2324 43.9744V41.1431H72.7785L72.8667 41.5587C73.1348 41.2824 73.4405 41.1431 73.7836 41.1431C74.4456 41.1431 74.7778 41.4915 74.7778 42.1895V43.9744H74.0711V42.1895C74.0711 41.8766 73.9177 41.7201 73.6096 41.7201C73.3801 41.7201 73.1566 41.813 72.9379 41.9976V43.9744H72.2324Z" fill="white"/>
<path d="M77.7227 43.7592C77.7227 44.5856 77.231 45 76.2489 45C75.9046 45 75.5989 44.9548 75.332 44.8655V44.2995C75.6038 44.39 75.9106 44.434 76.2537 44.434C76.7623 44.434 77.016 44.2189 77.016 43.7873C76.8058 43.8778 76.5811 43.9218 76.3395 43.9218C75.5083 43.9218 75.0928 43.4621 75.0928 42.544C75.0928 41.6259 75.5772 41.1443 76.5449 41.1443C76.8698 41.1443 77.2624 41.1834 77.7227 41.2604V43.7604V43.7592ZM77.016 41.7849C76.9 41.7421 76.7357 41.7201 76.5231 41.7201C76.0351 41.7201 75.7898 41.9927 75.7898 42.5367C75.7898 43.0807 76 43.3264 76.4216 43.3264C76.6246 43.3264 76.8227 43.2775 77.016 43.181V41.7849Z" fill="white"/>
<path d="M38.9899 40.5723H38.7725V44.0392H38.9899V40.5723Z" fill="white"/>
<path d="M53.9479 40.5723H53.7305V44.0392H53.9479V40.5723Z" fill="white"/>
<path d="M53.1416 37.5073V20H56.3478V26.2922C57.3481 25.198 58.6262 24.6516 60.1834 24.6516C63.1914 24.6516 64.6954 26.2347 64.6954 29.4022V37.5073H61.4893V29.4022C61.4893 27.9816 60.791 27.2714 59.3969 27.2714C58.3568 27.2714 57.3408 27.6919 56.3478 28.533V37.5073H53.1416Z" fill="white"/>
<path d="M77.6664 24.6101V37.5062H75.1621L74.7756 35.8656C73.3162 36.9597 71.7675 37.5062 70.1294 37.5062C67.5321 37.5062 66.2334 35.9512 66.2334 32.8424V24.6101H69.4396V32.7568C69.4396 34.1773 70.0521 34.8876 71.2782 34.8876C72.3184 34.8876 73.379 34.4671 74.4603 33.626V24.6101H77.6664Z" fill="white"/>
<path d="M79.2051 20H82.4113V25.632C83.3705 24.9792 84.4396 24.6528 85.6174 24.6528C89.2307 24.6528 91.0368 26.709 91.0368 30.8227C91.0368 35.2787 88.9686 37.5073 84.831 37.5073C83.089 37.5073 81.2141 37.3325 79.2051 36.9804V20ZM82.4113 34.5317C83.1446 34.7689 83.9962 34.8863 84.9639 34.8863C86.8992 34.8863 87.8668 33.5024 87.8668 30.7359C87.8668 28.4755 87.0321 27.3447 85.3625 27.3447C84.2813 27.3447 83.298 27.5648 82.4101 28.0061V34.5317H82.4113Z" fill="white"/>
<path d="M33.9923 33.5966L30.9069 24.6101H27.5195L32.3711 37.4646H35.419L40.5859 24.6101H37.1985L33.9923 33.5966Z" fill="white"/>
<path d="M47.3962 29.6907H45.3401C44.9366 29.6907 44.6129 29.6223 44.3712 29.4841C44.0088 29.2787 43.8276 28.9181 43.8276 28.4047C43.8276 27.8912 44.0874 27.5562 44.608 27.3338C45.0381 27.1504 45.6445 27.0587 46.4298 27.0587C48.028 27.0587 49.5127 27.3252 50.8851 27.8594C50.9322 27.8778 50.9793 27.8961 51.0264 27.9157V25.2225C49.6154 24.7323 48.1114 24.4878 46.5143 24.4878C45.4078 24.4878 44.4643 24.6039 43.6827 24.8362C43.104 25.0086 42.6147 25.2433 42.2149 25.5428C41.7643 25.879 41.4272 26.2959 41.2025 26.7934C41.0902 27.0416 41.0056 27.3105 40.9488 27.6003C40.892 27.8888 40.8643 28.1981 40.8643 28.5269C40.8643 28.9377 40.8969 29.3166 40.9633 29.6614C41.072 30.2286 41.269 30.7066 41.5553 31.0966C41.8706 31.5257 42.2922 31.8472 42.8225 32.0611C43.1112 32.1773 43.4314 32.2628 43.7829 32.3154C44.0777 32.3606 44.3954 32.3826 44.7361 32.3826H47.035C47.3394 32.3826 47.5943 32.4291 47.7985 32.5208C48.0027 32.6125 48.1645 32.7579 48.2696 32.9487C48.3747 33.1394 48.4267 33.379 48.4267 33.6675C48.4267 33.9975 48.3337 34.2677 48.1464 34.4768C47.9592 34.6858 47.6789 34.8337 47.3056 34.9205C47.0374 34.9829 46.7221 35.0147 46.3585 35.0147C45.8451 35.0147 45.3474 34.9927 44.8678 34.9486C44.2698 34.8936 43.6971 34.8044 43.1511 34.6797C42.5604 34.5452 42.001 34.3716 41.4719 34.1577V36.8508C42.8829 37.3411 44.4727 37.5856 46.2389 37.5856C49.8365 37.5856 51.6341 36.2384 51.6341 33.5452C51.6341 33.2225 51.6123 32.9193 51.5676 32.6369C51.506 32.2433 51.4009 31.89 51.2523 31.5758C50.9733 30.9841 50.5408 30.5306 49.9549 30.2176C49.2965 29.8655 48.4448 29.6895 47.3998 29.6895L47.3962 29.6907Z" fill="white"/>
<path d="M17.7079 26.4939C17.7249 26.4756 17.7285 26.4707 17.7502 26.4462C18.283 25.8411 18.8906 25.3521 19.5756 25.0073C20.2847 24.6614 21.0204 24.489 21.7549 24.489C23.2505 24.489 24.67 25.1516 25.7343 26.3313C26.7986 27.5697 27.382 28.7567 27.382 30.4548V37.5085H24.2133V30.4548C24.2133 28.9291 23.0729 27.5758 21.7549 27.5758C20.4369 27.5758 19.2712 28.8998 19.2712 30.4548V37.5085H16.1109V30.4548C16.1109 28.8998 14.9959 27.5758 13.6271 27.5758C12.2584 27.5758 11.1687 28.9291 11.1687 30.4548V37.5085H8V30.4548C8 28.7567 8.58349 27.5697 9.64779 26.3313C10.7121 25.1516 12.1316 24.489 13.6271 24.489C14.3628 24.489 15.0973 24.6614 15.8065 25.0073C16.4914 25.3533 17.0991 25.8423 17.6318 26.4462C17.6536 26.4707 17.6572 26.4756 17.6741 26.4939L17.691 26.5122L17.7079 26.4939Z" fill="white"/>
</svg>
