<svg width="33" height="36" viewBox="0 0 33 36" fill="none" xmlns="http://www.w3.org/2000/svg">
<g clip-path="url(#clip0_235_44)">
<path d="M21.9801 35.3012C24.5613 36.4731 27.6158 36.1532 29.8689 34.4748L31.0279 33.6116C32.1842 32.7504 32.6495 31.2903 32.1917 29.961C31.5323 28.0485 30.2324 26.3957 28.4917 25.2565L27.2534 24.4459C26.4354 23.9103 25.3488 23.942 24.5666 24.5241C23.9593 24.9764 23.2216 25.5258 22.536 26.0359C21.2301 27.0084 19.4429 27.1449 17.9906 26.3834L17.8598 26.3149C13.1408 23.8413 9.68905 19.6341 8.3076 14.6715L8.23147 14.398C7.82352 12.9318 8.37353 11.375 9.62901 10.4428L11.7411 8.87531C12.5238 8.29472 12.8202 7.29658 12.4734 6.41087L11.9427 5.05549C11.2061 3.17369 9.83969 1.57605 8.05511 0.508405H8.05404C6.81035 -0.236239 5.21179 -0.157533 4.05495 0.704149L2.89971 1.5643C0.647141 3.2432 -0.417496 5.99179 0.15074 8.66321L0.151812 8.66729C2.63221 20.3225 10.7172 30.1874 21.9796 35.3007" fill="white"/>
<path d="M32.1587 4.57167L23.1307 6.87715C22.6337 7.0039 22.4676 7.59624 22.831 7.94327L24.9544 9.96766L18.6309 15.9964C17.9785 16.6183 17.9785 17.6267 18.6309 18.2487C18.9574 18.5599 19.3846 18.7153 19.8124 18.7153C20.2402 18.7153 20.6674 18.5599 20.9939 18.2487L27.3174 12.22L29.4408 14.2444C29.8048 14.5914 30.4255 14.4325 30.559 13.9587L32.9772 5.35158C33.1102 4.87781 32.6556 4.44441 32.1587 4.57116V4.57167Z" fill="white"/>
</g>
<defs>
<clipPath id="clip0_235_44">
<rect width="33" height="36" fill="white"/>
</clipPath>
</defs>
</svg>
