<svg width="37" height="38" viewBox="0 0 37 38" fill="none" xmlns="http://www.w3.org/2000/svg">
<g clip-path="url(#clip0_235_40)">
<path d="M34.8877 31.6255C34.1731 29.6068 32.7642 27.8621 30.8778 26.6596L29.5357 25.804C28.6492 25.2386 27.4715 25.2721 26.6239 25.8866C25.9657 26.364 25.1662 26.9439 24.4232 27.4823C23.0079 28.5089 21.0709 28.653 19.4971 27.8492L19.3553 27.7769C14.241 25.1658 10.5001 20.7249 9.00291 15.4866L8.92041 15.198C8.47829 13.6502 9.07437 12.007 10.435 11.023L12.7241 9.3684C13.5723 8.75556 13.8936 7.70197 13.5177 6.76706L12.9425 5.33638C12.1442 3.35003 10.6633 1.66364 8.72927 0.536677H8.72811C7.38025 -0.249337 5.64778 -0.166258 4.39403 0.743295L3.14203 1.65123C0.701353 3.4234 -0.452464 6.32469 0.16337 9.14452L0.164532 9.14884C2.85271 21.4515 11.615 31.8645 23.8207 37.2619C26.6181 38.4989 29.9285 38.1612 32.3703 36.3896L33.6264 35.4784C34.8796 34.5694 35.3838 33.0281 34.8877 31.6249V31.6255Z" fill="white"/>
<path d="M36.4696 4.24192C35.7625 3.58538 34.6162 3.58538 33.9092 4.24192L27.056 10.6056L24.9767 8.67477C24.484 8.2173 23.6422 8.42662 23.4621 9.05187L21.0034 17.5745C20.8233 18.1997 21.4391 18.7716 22.1119 18.6038L31.2902 16.3207C31.9635 16.1535 32.1889 15.3718 31.6963 14.9143L29.617 12.9836L36.4701 6.61992C37.1772 5.96338 37.1772 4.899 36.4701 4.24246L36.4696 4.24192Z" fill="white"/>
</g>
<defs>
<clipPath id="clip0_235_40">
<rect width="37" height="38" fill="white"/>
</clipPath>
</defs>
</svg>
