<svg width="44" height="43" viewBox="0 0 44 43" fill="none" xmlns="http://www.w3.org/2000/svg">
<path fill-rule="evenodd" clip-rule="evenodd" d="M0 42.6032C0.25064 41.7069 0.451153 40.8603 0.701794 40.0636C1.40359 37.524 2.15551 34.9346 2.8573 32.395C2.95756 31.9966 2.90743 31.4986 2.70692 31.1501C-4.01025 18.7508 2.90743 3.76219 17.0436 0.575232C29.8262 -2.31294 41.3557 6.05281 43.4611 17.2071C45.6667 28.8594 37.7465 39.9142 25.816 41.9558C21.0538 42.7526 16.4921 42.0554 12.1811 40.0138C11.7801 39.8146 11.2287 39.7648 10.8277 39.8644C5.01281 41.2587 1.20307 42.3044 0 42.5534M5.06294 37.7232C7.21845 37.1754 9.22357 36.6774 11.2287 36.1297C11.7801 35.9803 12.2313 36.0799 12.7325 36.3289C16.4921 38.4203 20.5024 39.217 24.8134 38.5199C34.7388 36.9762 41.5061 28.0129 40.0022 18.4521C38.4482 8.54262 28.8237 1.91973 18.6978 3.71239C6.4164 5.90342 -0.100256 19.0994 6.01537 29.6064C6.66704 30.7517 6.86755 31.7476 6.4164 32.9427C5.86499 34.4366 5.56422 35.9803 5.06294 37.6734" fill="white"/>
<path fill-rule="evenodd" clip-rule="evenodd" d="M27.67 31.2495C23.4091 31.1001 16.5917 27.8633 11.9298 20.0453C10.2756 17.2568 10.5262 14.1196 12.9324 11.9286C13.7344 11.1816 14.7871 11.3808 15.7395 11.5302C15.9902 11.5302 16.2408 11.9286 16.3411 12.1775C16.9426 13.522 17.5442 14.9163 18.0956 16.3106C18.3963 17.0576 17.8449 17.7547 16.7421 18.9498C16.3912 19.3482 16.291 19.6968 16.5917 20.1449C18.3963 23.0829 20.9027 25.1743 24.1611 26.4192C24.6623 26.6184 25.0132 26.469 25.314 26.1205C27.0685 24.0788 27.2189 23.4813 28.1713 23.8796C32.5826 25.9213 32.9335 26.0209 32.9335 26.469C33.0839 30.0544 29.6752 31.3491 27.6199 31.1997" fill="white"/>
</svg>
