<svg width="33" height="33" viewBox="0 0 33 33" fill="none" xmlns="http://www.w3.org/2000/svg">
<path d="M20.6937 6.875C22.0367 7.13703 23.271 7.79385 24.2386 8.76141C25.2061 9.72897 25.8629 10.9632 26.125 12.3062M20.6937 1.375C23.484 1.68497 26.0859 2.93449 28.0723 4.91839C30.0587 6.90228 31.3115 9.50264 31.625 12.2925M30.25 23.265V27.39C30.2515 27.7729 30.1731 28.152 30.0197 28.5029C29.8663 28.8537 29.6413 29.1687 29.3591 29.4276C29.0769 29.6864 28.7438 29.8835 28.381 30.0062C28.0182 30.1289 27.6339 30.1745 27.2525 30.14C23.0214 29.6803 18.9571 28.2344 15.3862 25.9187C12.064 23.8077 9.24731 20.991 7.13622 17.6687C4.81244 14.0817 3.3663 9.99762 2.91497 5.7475C2.88061 5.36727 2.9258 4.98405 3.04766 4.62223C3.16952 4.26042 3.36538 3.92795 3.62277 3.64598C3.88017 3.36401 4.19345 3.13873 4.54268 2.98447C4.89191 2.83021 5.26944 2.75036 5.65122 2.75H9.77622C10.4435 2.74343 11.0904 2.97973 11.5964 3.41486C12.1023 3.84998 12.4328 4.45424 12.5262 5.115C12.7003 6.43509 13.0232 7.73125 13.4887 8.97875C13.6737 9.4709 13.7138 10.0058 13.6041 10.52C13.4944 11.0342 13.2397 11.5062 12.87 11.88L11.1237 13.6262C13.0811 17.0686 15.9313 19.9189 19.3737 21.8762L21.12 20.13C21.4938 19.7603 21.9658 19.5055 22.48 19.3959C22.9942 19.2862 23.5291 19.3263 24.0212 19.5112C25.2687 19.9768 26.5649 20.2996 27.885 20.4737C28.5529 20.568 29.1629 20.9044 29.599 21.4191C30.035 21.9337 30.2667 22.5907 30.25 23.265Z" fill="white"/>
</svg>
