<svg width="34" height="33" viewBox="0 0 34 33" fill="none" xmlns="http://www.w3.org/2000/svg">
<path fill-rule="evenodd" clip-rule="evenodd" d="M0 32.5883C0.191721 31.9026 0.345099 31.2551 0.53682 30.6457C1.07364 28.703 1.6488 26.7223 2.18562 24.7797C2.26231 24.475 2.22397 24.0941 2.07059 23.8275C-3.06754 14.343 2.22397 2.87779 13.037 0.44001C22.8148 -1.76923 31.634 4.62995 33.2445 13.1622C34.9316 22.0753 28.8732 30.5314 19.7473 32.0931C16.1046 32.7025 12.6153 32.1693 9.31766 30.6076C9.0109 30.4552 8.58911 30.4171 8.28236 30.4933C3.83443 31.5598 0.920262 32.3597 0 32.5502M3.87277 28.8554C5.52157 28.4364 7.05534 28.0555 8.58911 27.6365C9.0109 27.5222 9.356 27.5984 9.73944 27.7889C12.6153 29.3887 15.6828 29.9981 18.9804 29.4649C26.5726 28.2841 31.749 21.4278 30.5987 14.1144C29.41 6.53446 22.0479 1.46845 14.3024 2.8397C4.90806 4.51568 -0.0766884 14.6096 4.60131 22.6467C5.09979 23.5228 5.25316 24.2846 4.90807 25.1987C4.48628 26.3414 4.25621 27.5222 3.87277 28.8173" fill="white"/>
<path fill-rule="evenodd" clip-rule="evenodd" d="M21.1656 23.9035C17.9063 23.7892 12.6915 21.3134 9.1255 15.3332C7.86014 13.2001 8.05186 10.8004 9.89238 9.12446C10.5059 8.5531 11.3111 8.70547 12.0397 8.81974C12.2314 8.81974 12.4231 9.12446 12.4998 9.31491C12.9599 10.3434 13.4201 11.4099 13.8418 12.4764C14.0719 13.0478 13.6501 13.581 12.8065 14.4952C12.5381 14.7999 12.4614 15.0666 12.6915 15.4094C14.0719 17.6567 15.9891 19.2565 18.4815 20.2088C18.8649 20.3611 19.1333 20.2468 19.3634 19.9802C20.7055 18.4185 20.8205 17.9614 21.549 18.2661C24.9233 19.8278 25.1917 19.904 25.1917 20.2468C25.3068 22.9893 22.6994 23.9797 21.1273 23.8654" fill="white"/>
</svg>
